<svg id="charts_svg" width="452" height="450"><rect id="charts_border" opacity="1" fill="transparent" stroke="transparent" stroke-width="0" stroke-dasharray="undefined" d="undefined" y="0" x="0" height="450" width="452" rx="0" ry="0" transform="" aria-hidden="true"></rect><g id="charts_SeriesCollection"><g id="charts_Series_0"><path id="charts_Series_0_Point_0" opacity="1" fill="#8A75E2" stroke="#8A75E2" stroke-width="1" stroke-dasharray="" d="M 225.99999999999997 53 A 172 172 0 0 1 274.4578688510023 59.96717009510178 L 259.9205081957016 109.47701906657126 A 120.39999999999999 120.39999999999999 0 0,0 225.99999999999997 104.60000000000001 Z" role="img" tabindex="0" aria-label="BUY TAX: 5%. "></path><path id="charts_Series_0_Point_1" opacity="1" fill="#E275CA" stroke="#E275CA" stroke-width="1" stroke-dasharray="" d="M 274.4578688510023 59.96717009510178 A 172 172 0 0 1 318.98999101908527 80.30424480908076 L 291.0929937133597 123.71297136635653 A 120.39999999999999 120.39999999999999 0 0,0 259.9205081957016 109.47701906657126 Z" role="img" tabindex="" aria-label="SELL TAX: 5%. "></path><path id="charts_Series_0_Point_2" opacity="1" fill="#E7C369" stroke="#E7C369" stroke-width="1" stroke-dasharray="" d="M 318.98999101908527 80.30424480908076 A 172 172 0 0 1 396.2494045173236 249.47734179801193 L 345.1745831621265 242.13413925860834 A 120.39999999999999 120.39999999999999 0 0,0 291.0929937133597 123.71297136635653 Z" role="img" tabindex="" aria-label="PRESALE: 20%. "></path><path id="charts_Series_0_Point_3" opacity="1" fill="#E28975" stroke="#E28975" stroke-width="1" stroke-dasharray="" d="M 396.2494045173236 249.47734179801193 A 172 172 0 0 1 355.98964164808285 337.6352212418611 L 316.992749153658 303.84465486930276 A 120.39999999999999 120.39999999999999 0 0,0 345.1745831621265 242.13413925860834 Z" role="img" tabindex="" aria-label="RESERVED TOKENS: 10%. "></path><path id="charts_Series_0_Point_4" opacity="1" fill="#DEE062" stroke="#DEE062" stroke-width="1" stroke-dasharray="" d="M 355.9896416480829 337.6352212418611 A 172 172 0 1 1 225.99699803368674 53.000000026197114 L 225.9978986235807 104.60000001833798 A 120.39999999999999 120.39999999999999 0 1,0 316.992749153658 303.84465486930276 Z" role="img" tabindex="" aria-label="LIQUIDITY POOL: 70%. "></path></g></g></svg>